<svg viewBox="0 0 104 110" style="background-color:#ffffff00" xmlns="http://www.w3.org/2000/svg" width="104" height="110"><g><path opacity=".4" d="M1.182 55c0-26.454 20.214-48.185 46.038-50.595l.155 3.157 5.563-3.875L46.847.19l.267 3.035C20.687 5.687 0 27.928 0 55h1.182zm101.636 0c0 26.546-20.355 48.337-46.308 50.62l.053-3.12-5.5 3.72 6.156 3.56-.6-2.98C83.173 104.46 104 82.16 104 55h-1.182z" fill="#fff"/><g stroke="#fff" fill="none"><path d="M81 71H23c-2.21 0-4-1.79-4-4V43c0-2.21 1.79-4 4-4h58c2.21 0 4 1.79 4 4v24c0 2.21-1.79 4-4 4zM77 71H27V39h50v32z"/><path d="M22.5 58.5v-7"/></g><g opacity=".251" visibility="hidden" stroke="#fff" fill="none"><path d="M37 84V26c0-2.21 1.79-4 4-4h24c2.21 0 4 1.79 4 4v58c0 2.21-1.79 4-4 4H41c-2.21 0-4-1.79-4-4zM37 80V30h32v50H37z"/><path d="M49.5 25.5h7"/></g></g></svg>